<?xml version="1.0" encoding="UTF-8" ?>
<!DOCTYPE svg PUBLIC "-//W3C//DTD SVG 1.1//EN" "http://www.w3.org/Graphics/SVG/1.1/DTD/svg11.dtd">
<svg width="510pt" height="388pt" viewBox="0 0 510 388" version="1.1" xmlns="http://www.w3.org/2000/svg">
<g stroke="black" stroke-width="1">
<line x1="97" y1="38" x2="99" y2="38"/>
<line x1="103" y1="40" x2="97" y2="40"/>
<line x1="100" y1="42" x2="105" y2="42"/>
<line x1="107" y1="44" x2="103" y2="44"/>
<line x1="105" y1="46" x2="110" y2="46"/>
<line x1="113" y1="48" x2="108" y2="48"/>
<line x1="111" y1="50" x2="116" y2="50"/>
<line x1="118" y1="52" x2="113" y2="52"/>
<line x1="116" y1="54" x2="121" y2="54"/>
<line x1="123" y1="56" x2="118" y2="56"/>
<line x1="121" y1="58" x2="125" y2="58"/>
<line x1="128" y1="60" x2="123" y2="60"/>
<line x1="125" y1="62" x2="131" y2="62"/>
<line x1="134" y1="64" x2="129" y2="64"/>
<line x1="131" y1="66" x2="136" y2="66"/>
<line x1="165" y1="66" x2="204" y2="66"/>
<line x1="186" y1="68" x2="156" y2="68"/>
<line x1="139" y1="68" x2="134" y2="68"/>
<line x1="136" y1="70" x2="142" y2="70"/>
<line x1="153" y1="70" x2="162" y2="70"/>
<line x1="155" y1="72" x2="148" y2="72"/>
<line x1="144" y1="72" x2="139" y2="72"/>
<line x1="142" y1="74" x2="151" y2="74"/>
<line x1="150" y1="76" x2="138" y2="76"/>
<line x1="131" y1="78" x2="141" y2="78"/>
<line x1="147" y1="78" x2="152" y2="78"/>
<line x1="154" y1="80" x2="149" y2="80"/>
<line x1="136" y1="80" x2="124" y2="80"/>
<line x1="118" y1="82" x2="131" y2="82"/>
<line x1="151" y1="82" x2="156" y2="82"/>
<line x1="159" y1="84" x2="153" y2="84"/>
<line x1="124" y1="84" x2="113" y2="84"/>
<line x1="111" y1="86" x2="119" y2="86"/>
<line x1="156" y1="86" x2="161" y2="86"/>
<line x1="163" y1="88" x2="158" y2="88"/>
<line x1="160" y1="90" x2="164" y2="90"/>
<line x1="166" y1="92" x2="161" y2="92"/>
<line x1="163" y1="94" x2="168" y2="94"/>
<line x1="170" y1="96" x2="165" y2="96"/>
<line x1="166" y1="98" x2="171" y2="98"/>
<line x1="172" y1="100" x2="168" y2="100"/>
<line x1="169" y1="102" x2="174" y2="102"/>
<line x1="175" y1="104" x2="171" y2="104"/>
<line x1="172" y1="106" x2="176" y2="106"/>
<line x1="177" y1="108" x2="173" y2="108"/>
<line x1="174" y1="110" x2="178" y2="110"/>
<line x1="179" y1="112" x2="175" y2="112"/>
<line x1="176" y1="114" x2="180" y2="114"/>
<line x1="180" y1="116" x2="177" y2="116"/>
<line x1="177" y1="118" x2="181" y2="118"/>
<line x1="182" y1="120" x2="178" y2="120"/>
<line x1="179" y1="122" x2="182" y2="122"/>
<line x1="183" y1="124" x2="179" y2="124"/>
<line x1="180" y1="126" x2="184" y2="126"/>
<line x1="185" y1="128" x2="181" y2="128"/>
<line x1="182" y1="130" x2="185" y2="130"/>
<line x1="186" y1="132" x2="182" y2="132"/>
<line x1="183" y1="134" x2="187" y2="134"/>
<line x1="188" y1="136" x2="184" y2="136"/>
<line x1="185" y1="138" x2="189" y2="138"/>
<line x1="190" y1="140" x2="186" y2="140"/>
<line x1="187" y1="142" x2="191" y2="142"/>
<line x1="193" y1="144" x2="188" y2="144"/>
<line x1="189" y1="146" x2="193" y2="146"/>
<line x1="194" y1="148" x2="190" y2="148"/>
<line x1="181" y1="150" x2="221" y2="150"/>
<line x1="235" y1="152" x2="186" y2="152"/>
<line x1="184" y1="152" x2="173" y2="152"/>
<line x1="169" y1="154" x2="179" y2="154"/>
<line x1="192" y1="154" x2="195" y2="154"/>
<line x1="228" y1="154" x2="252" y2="154"/>
<line x1="252" y1="156" x2="240" y2="156"/>
<line x1="195" y1="156" x2="192" y2="156"/>
<line x1="172" y1="156" x2="167" y2="156"/>
<line x1="164" y1="158" x2="171" y2="158"/>
<line x1="192" y1="158" x2="195" y2="158"/>
<line x1="196" y1="160" x2="192" y2="160"/>
<line x1="168" y1="160" x2="161" y2="160"/>
<line x1="158" y1="162" x2="165" y2="162"/>
<line x1="193" y1="162" x2="196" y2="162"/>
<line x1="196" y1="164" x2="193" y2="164"/>
<line x1="162" y1="164" x2="157" y2="164"/>
<line x1="193" y1="166" x2="196" y2="166"/>
<line x1="196" y1="168" x2="193" y2="168"/>
<line x1="193" y1="170" x2="196" y2="170"/>
<line x1="196" y1="172" x2="193" y2="172"/>
<line x1="193" y1="174" x2="196" y2="174"/>
<line x1="196" y1="176" x2="193" y2="176"/>
<line x1="193" y1="178" x2="197" y2="178"/>
<line x1="197" y1="180" x2="194" y2="180"/>
<line x1="194" y1="182" x2="198" y2="182"/>
<line x1="198" y1="184" x2="194" y2="184"/>
<line x1="195" y1="186" x2="199" y2="186"/>
<line x1="199" y1="188" x2="195" y2="188"/>
<line x1="196" y1="190" x2="200" y2="190"/>
<line x1="200" y1="192" x2="197" y2="192"/>
<line x1="197" y1="194" x2="200" y2="194"/>
<line x1="200" y1="196" x2="197" y2="196"/>
<line x1="197" y1="198" x2="200" y2="198"/>
<line x1="200" y1="200" x2="197" y2="200"/>
<line x1="197" y1="202" x2="201" y2="202"/>
<line x1="201" y1="204" x2="198" y2="204"/>
<line x1="198" y1="206" x2="201" y2="206"/>
<line x1="202" y1="208" x2="198" y2="208"/>
<line x1="199" y1="210" x2="204" y2="210"/>
<line x1="205" y1="212" x2="201" y2="212"/>
<line x1="202" y1="214" x2="207" y2="214"/>
<line x1="208" y1="216" x2="203" y2="216"/>
<line x1="205" y1="218" x2="210" y2="218"/>
<line x1="211" y1="220" x2="206" y2="220"/>
<line x1="208" y1="222" x2="213" y2="222"/>
<line x1="215" y1="224" x2="210" y2="224"/>
<line x1="211" y1="226" x2="218" y2="226"/>
<line x1="220" y1="228" x2="214" y2="228"/>
<line x1="217" y1="230" x2="223" y2="230"/>
<line x1="226" y1="232" x2="220" y2="232"/>
<line x1="222" y1="234" x2="229" y2="234"/>
<line x1="232" y1="236" x2="225" y2="236"/>
<line x1="227" y1="238" x2="234" y2="238"/>
<line x1="237" y1="240" x2="230" y2="240"/>
<line x1="233" y1="242" x2="240" y2="242"/>
<line x1="245" y1="244" x2="235" y2="244"/>
<line x1="239" y1="246" x2="246" y2="246"/>
<line x1="247" y1="248" x2="243" y2="248"/>
<line x1="243" y1="250" x2="247" y2="250"/>
</g></svg>